<svg viewBox="0 0 1440 666" fill="none" xmlns="http://www.w3.org/2000/svg">
    <g clip-path="url(#clip0_189_8250)">
    <path fill-rule="evenodd" clip-rule="evenodd" d="M785.703 292.089L605.475 329.658C399.252 387.608 175.078 342.128 0.276672 246.592V135.647C8.84145 132.932 17.6276 130.266 26.8721 128.273C332.643 62.3553 464.822 186.803 618.387 247.272C669.274 267.309 723.03 295.351 785.703 292.089Z" fill="#C3F0FF"></path>
    <path fill-rule="evenodd" clip-rule="evenodd" d="M649.619 284.484L829.321 337.082C1046.73 398.178 1284.1 344.324 1462.53 238.044V151.403C1444.84 147.094 1427.41 139.9 1407.92 135.697C1000.84 47.9395 901.44 297.597 649.619 284.484Z" fill="#C3F0FF"></path>
    <path fill-rule="evenodd" clip-rule="evenodd" d="M1327.64 300.983C1486.31 259.232 1534.88 268.266 1332.86 263.637C1330.57 263.584 1328.28 263.527 1326.01 263.464C1025.35 255.056 797.022 110.108 503.168 134.451C392.189 143.645 229.933 164.662 229.933 187.506C468.138 254.106 810.879 428.149 1225.71 344.057C1253.86 338.349 1297.87 308.814 1327.64 300.983Z" fill="#52D0FA" fill-opacity="0.58"></path>
    <path d="M1258.15 308.834C1351.26 284.332 1395.82 263.063 1462.03 222.449V390.11H0.776672V191.721C70.6566 169.057 163.802 170.292 269.343 183.618C373.874 196.816 490.493 221.863 608.601 247.23L612.575 248.084C732.029 273.739 852.882 299.588 964.126 313.694C1075.36 327.799 1177.05 330.17 1258.15 308.834Z" fill="#2EB9E8" stroke="#1E1B54"></path>
    <mask id="mask0_189_8250" maskUnits="userSpaceOnUse" x="0" y="386">
    <path d="M0 386.238H1457V691H0V386.238Z" fill="white"></path>
    </mask>
    <g mask="url(#mask0_189_8250)">
    <path d="M-11.2919 386.238H1481.16V691H-11.2919V386.238Z" fill="url(#paint0_linear_189_8250)"></path>
    </g>
    </g>
    <defs>
    <linearGradient id="paint0_linear_189_8250" x1="735" y1="386" x2="735" y2="670" gradientUnits="userSpaceOnUse">
    <stop stop-color="#2EB9E8"></stop>
    <stop offset="1" stop-color="#1F8CB1"></stop>
    </linearGradient>
    <clipPath id="clip0_189_8250">
    <rect width="1457" height="691" fill="white"></rect>
    </clipPath>
    </defs>
</svg>